<svg xmlns="http://www.w3.org/2000/svg" version="1.1" xmlns:xlink="http://www.w3.org/1999/xlink" viewBox="0 0 700 700" style="overflow: hidden; display: block;" width="700" height="700"><defs></defs><g id="two-0" transform="matrix(1 0 0 1 0 0)" opacity="1"><path transform="matrix(1 0 0 1 350 350)" id="two-82" d="M 196.006333 20.601095 C 192.749961 44.67874 243.422023 38.533956 260.864416 55.448443 C 270.735867 65.021127 285.665717 78.363556 281.70456 91.53136 C 277.890484 104.210233 258.894512 107.477387 245.800252 109.437323 C 219.614262 113.356815 193.042045 98.478176 166.660682 96.221589 C 155.327013 95.25214 136.788961 85.638108 132.191284 96.042589 C 107.908203 150.994875 291.022204 181.594581 255.459982 230.017201 C 237.343727 254.684853 200.001405 201.791201 171.546399 190.521578 C 157.555817 184.980599 140.598716 167.926706 128.180321 176.425076 C 116.849812 184.178966 138.895637 213.70999 125.841744 217.964294 C 94.608245 228.143387 92.65524 127.344291 62.758443 140.957771 C 29.442334 156.128232 101.512405 219.778401 81.334877 250.323014 C 76.328968 257.900927 61.204631 250.528707 54.569753 256.730503 C 37.867042 272.34297 56.700594 320.758846 33.934891 322.868927 C 10.119541 325.076296 10.431939 280.34967 0 258.82717 C -7.835576 242.661321 -14.825107 225.501567 -21.968703 209.018243 C -26.986981 197.438935 -30.432831 184.639606 -36.949167 173.832162 C -40.718542 167.580596 -43.622764 156.154144 -50.904646 156.66839 C -97.186246 159.936791 -81.02269 296.050907 -123.390325 277.139206 C -166.109848 258.070432 -40.973243 164.525401 -81.766268 141.62333 C -132.651823 113.055099 -151.643469 307.999727 -199.051427 273.970784 C -243.934853 241.753924 -127.523484 182.683951 -115.863452 128.679398 C -114.293834 121.409564 -111.830657 110.40444 -117.99478 106.242976 C -131.610959 97.050551 -149.643399 117.030973 -165.722047 120.404114 C -183.545659 124.143331 -202.294533 128.319652 -220.477161 127.292547 C -234.835248 126.481484 -260.953462 131.276664 -262.827421 117.018306 C -269.849996 63.585754 -109.645791 91.805835 -119.460208 38.814974 C -121.809451 26.130736 -145.338633 34.554208 -158.205263 33.627566 C -206.526998 30.147481 -301.157748 80.351222 -305.005623 32.057382 C -309.980363 -30.37951 -134.886025 60.296027 -117.930125 0 C -116.016711 -6.804196 -129.541579 -8.656195 -134.061266 -14.090407 C -138.103053 -18.95002 -140.255719 -25.352021 -143.822318 -30.570378 C -148.948853 -38.071104 -158.234509 -43.529523 -160.796718 -52.246021 C -162.53308 -58.153033 -156.588955 -65.189564 -159.072193 -70.823504 C -178.605429 -115.140268 -259.735078 -113.813011 -276.087749 -159.399336 C -280.109431 -170.610576 -278.728049 -189.964405 -267.718277 -194.508714 C -208.508387 -218.947729 -145.370345 -44.697478 -102.632196 -92.410445 C -56.710168 -143.677901 -279.917178 -208.146785 -231.128284 -256.693965 C -199.885764 -287.7817 -159.656655 -202.739432 -126.337441 -173.888569 C -106.646385 -156.838229 -92.45626 -131.016861 -69.047559 -119.59388 C -63.968212 -117.11526 -57.143622 -114.471217 -52.111567 -117.044495 C -46.573046 -119.876768 -45.350271 -127.868745 -43.474188 -133.79979 C -39.160831 -147.436023 -40.008682 -162.643051 -37.566208 -176.735113 C -34.090271 -196.789834 -30.476226 -217.521972 -24.920507 -237.102777 C -18.309618 -260.402465 -16.046712 -287.99382 -0.000001 -306.134447 C 8.329171 -315.550483 21.494026 -324.764277 33.985009 -323.34577 C 46.584413 -321.914951 58.147018 -310.235903 63.499237 -298.740427 C 78.085155 -267.412849 33.286126 -211.595087 63.042259 -194.024124 C 73.140685 -188.061016 84.741074 -218.40701 94.086589 -211.321939 C 116.421661 -194.389158 50.896172 -144.116942 74.317176 -128.721125 C 88.823346 -119.185482 102.839838 -149.44469 116.427608 -160.248856 C 155.620301 -191.412494 185.216364 -274.876698 232.394738 -258.100505 C 245.606189 -253.402635 243.029993 -230.097119 240.278628 -216.347849 C 234.080311 -185.373287 199.430558 -165.690208 187.68969 -136.364543 C 183.788901 -126.621375 184.245734 -115.326315 181.995771 -105.075308 C 180.011523 -96.034914 179.37876 -86.068641 174.99932 -77.914718 C 168.739533 -66.259846 142.378101 -60.039937 148.155966 -48.138792 C 164.664305 -14.135207 255.205731 -92.883729 262.443149 -55.784014 C 270.794873 -12.972258 132.070569 -57.739279 136.913838 -14.390225 C 142.415188 34.848892 283.187325 -49.443773 286.360464 -0.000001 C 288.319092 30.519286 200.105078 -9.705065 196.006333 20.601095 Z " fill="hsl(205, 69%, 50%)" stroke="undefined" stroke-width="1" stroke-opacity="1" fill-opacity="1" visibility="visible" stroke-linecap="butt" stroke-linejoin="miter" stroke-miterlimit="4"></path></g></svg>